<svg width="147" height="80" viewBox="0 0 147 80" fill="none" xmlns="http://www.w3.org/2000/svg">
<rect width="147" height="80" fill="#E5E5E5"/>
<g id="Frame 1">
<g id="arrow">
<line id="Line 1" x1="1.44394" y1="41.5497" x2="13.4105" y2="36.4702" stroke="#3C48FF" stroke-width="2" stroke-linecap="round"/>
<line id="Line 2" x1="1.31124" y1="42.5276" x2="13.2778" y2="47.6071" stroke="#3C48FF" stroke-width="2" stroke-linecap="round"/>
</g>
<g id="arrow_2">
<line id="Line 1_2" x1="145.278" y1="42.3686" x2="133.311" y2="47.4481" stroke="#3C48FF" stroke-width="2" stroke-linecap="round"/>
<line id="Line 2_2" x1="145.411" y1="41.3907" x2="133.444" y2="36.3112" stroke="#3C48FF" stroke-width="2" stroke-linecap="round"/>
</g>
<line id="close line" x1="124.402" y1="49.5121" x2="130.559" y2="32.5977" stroke="#3C48FF" stroke-width="2" stroke-linecap="round"/>
<path id="Dor.Dev" d="M31.664 45.952C31.84 45.968 32.04 45.984 32.264 46C32.504 46 32.784 46 33.104 46C34.976 46 36.36 45.528 37.256 44.584C38.168 43.64 38.624 42.336 38.624 40.672C38.624 38.928 38.192 37.608 37.328 36.712C36.464 35.816 35.096 35.368 33.224 35.368C32.968 35.368 32.704 35.376 32.432 35.392C32.16 35.392 31.904 35.408 31.664 35.44V45.952ZM42.488 40.672C42.488 42.112 42.264 43.368 41.816 44.44C41.368 45.512 40.728 46.4 39.896 47.104C39.08 47.808 38.08 48.336 36.896 48.688C35.712 49.04 34.384 49.216 32.912 49.216C32.24 49.216 31.456 49.184 30.56 49.12C29.664 49.072 28.784 48.96 27.92 48.784V32.584C28.784 32.424 29.68 32.32 30.608 32.272C31.552 32.208 32.36 32.176 33.032 32.176C34.456 32.176 35.744 32.336 36.896 32.656C38.064 32.976 39.064 33.48 39.896 34.168C40.728 34.856 41.368 35.736 41.816 36.808C42.264 37.88 42.488 39.168 42.488 40.672ZM57.1833 42.664C57.1833 43.656 57.0393 44.568 56.7513 45.4C56.4633 46.216 56.0473 46.92 55.5033 47.512C54.9593 48.088 54.3033 48.536 53.5353 48.856C52.7833 49.176 51.9353 49.336 50.9913 49.336C50.0633 49.336 49.2153 49.176 48.4473 48.856C47.6953 48.536 47.0473 48.088 46.5033 47.512C45.9593 46.92 45.5353 46.216 45.2313 45.4C44.9273 44.568 44.7753 43.656 44.7753 42.664C44.7753 41.672 44.9273 40.768 45.2313 39.952C45.5513 39.136 45.9833 38.44 46.5273 37.864C47.0873 37.288 47.7433 36.84 48.4953 36.52C49.2633 36.2 50.0953 36.04 50.9913 36.04C51.9033 36.04 52.7353 36.2 53.4873 36.52C54.2553 36.84 54.9113 37.288 55.4553 37.864C55.9993 38.44 56.4233 39.136 56.7273 39.952C57.0313 40.768 57.1833 41.672 57.1833 42.664ZM53.5353 42.664C53.5353 41.56 53.3113 40.696 52.8633 40.072C52.4313 39.432 51.8073 39.112 50.9913 39.112C50.1753 39.112 49.5433 39.432 49.0953 40.072C48.6473 40.696 48.4233 41.56 48.4233 42.664C48.4233 43.768 48.6473 44.648 49.0953 45.304C49.5433 45.944 50.1753 46.264 50.9913 46.264C51.8073 46.264 52.4313 45.944 52.8633 45.304C53.3113 44.648 53.5353 43.768 53.5353 42.664ZM67.5614 39.544C67.2414 39.464 66.8654 39.384 66.4334 39.304C66.0014 39.208 65.5374 39.16 65.0414 39.16C64.8174 39.16 64.5454 39.184 64.2254 39.232C63.9214 39.264 63.6894 39.304 63.5294 39.352V49H59.9534V37.048C60.5934 36.824 61.3454 36.616 62.2094 36.424C63.0894 36.216 64.0654 36.112 65.1374 36.112C65.3294 36.112 65.5614 36.128 65.8334 36.16C66.1054 36.176 66.3774 36.208 66.6494 36.256C66.9214 36.288 67.1934 36.336 67.4654 36.4C67.7374 36.448 67.9694 36.512 68.1614 36.592L67.5614 39.544ZM72.1528 47.104C72.1528 47.824 71.9208 48.376 71.4568 48.76C71.0088 49.128 70.4968 49.312 69.9208 49.312C69.3448 49.312 68.8248 49.128 68.3608 48.76C67.9128 48.376 67.6888 47.824 67.6888 47.104C67.6888 46.384 67.9128 45.84 68.3608 45.472C68.8248 45.088 69.3448 44.896 69.9208 44.896C70.4968 44.896 71.0088 45.088 71.4568 45.472C71.9208 45.84 72.1528 46.384 72.1528 47.104ZM78.539 45.952C78.715 45.968 78.915 45.984 79.139 46C79.379 46 79.659 46 79.979 46C81.851 46 83.235 45.528 84.131 44.584C85.043 43.64 85.499 42.336 85.499 40.672C85.499 38.928 85.067 37.608 84.203 36.712C83.339 35.816 81.971 35.368 80.099 35.368C79.843 35.368 79.579 35.376 79.307 35.392C79.035 35.392 78.779 35.408 78.539 35.44V45.952ZM89.363 40.672C89.363 42.112 89.139 43.368 88.691 44.44C88.243 45.512 87.603 46.4 86.771 47.104C85.955 47.808 84.955 48.336 83.771 48.688C82.587 49.04 81.259 49.216 79.787 49.216C79.115 49.216 78.331 49.184 77.435 49.12C76.539 49.072 75.659 48.96 74.795 48.784V32.584C75.659 32.424 76.555 32.32 77.483 32.272C78.427 32.208 79.235 32.176 79.907 32.176C81.331 32.176 82.619 32.336 83.771 32.656C84.939 32.976 85.939 33.48 86.771 34.168C87.603 34.856 88.243 35.736 88.691 36.808C89.139 37.88 89.363 39.168 89.363 40.672ZM91.6503 42.784C91.6503 41.664 91.8183 40.688 92.1543 39.856C92.5063 39.008 92.9623 38.304 93.5223 37.744C94.0823 37.184 94.7223 36.76 95.4423 36.472C96.1783 36.184 96.9303 36.04 97.6983 36.04C99.4903 36.04 100.906 36.592 101.946 37.696C102.986 38.784 103.506 40.392 103.506 42.52C103.506 42.728 103.498 42.96 103.482 43.216C103.466 43.456 103.45 43.672 103.434 43.864H95.3223C95.4023 44.6 95.7463 45.184 96.3543 45.616C96.9623 46.048 97.7783 46.264 98.8023 46.264C99.4583 46.264 100.098 46.208 100.722 46.096C101.362 45.968 101.882 45.816 102.282 45.64L102.762 48.544C102.57 48.64 102.314 48.736 101.994 48.832C101.674 48.928 101.314 49.008 100.914 49.072C100.53 49.152 100.114 49.216 99.6663 49.264C99.2183 49.312 98.7703 49.336 98.3223 49.336C97.1863 49.336 96.1943 49.168 95.3463 48.832C94.5143 48.496 93.8183 48.04 93.2583 47.464C92.7143 46.872 92.3063 46.176 92.0343 45.376C91.7783 44.576 91.6503 43.712 91.6503 42.784ZM100.05 41.416C100.034 41.112 99.9783 40.816 99.8823 40.528C99.8023 40.24 99.6663 39.984 99.4743 39.76C99.2983 39.536 99.0663 39.352 98.7783 39.208C98.5063 39.064 98.1623 38.992 97.7463 38.992C97.3463 38.992 97.0023 39.064 96.7143 39.208C96.4263 39.336 96.1863 39.512 95.9943 39.736C95.8023 39.96 95.6503 40.224 95.5383 40.528C95.4423 40.816 95.3703 41.112 95.3223 41.416H100.05ZM109.698 49C108.882 47.4 108.05 45.528 107.202 43.384C106.37 41.24 105.578 38.904 104.826 36.376H108.618C108.778 37 108.962 37.68 109.17 38.416C109.394 39.136 109.618 39.872 109.842 40.624C110.082 41.36 110.314 42.08 110.538 42.784C110.778 43.488 111.01 44.128 111.234 44.704C111.442 44.128 111.666 43.488 111.906 42.784C112.146 42.08 112.378 41.36 112.602 40.624C112.842 39.872 113.066 39.136 113.274 38.416C113.498 37.68 113.69 37 113.85 36.376H117.546C116.794 38.904 115.994 41.24 115.146 43.384C114.314 45.528 113.49 47.4 112.674 49H109.698Z" fill="#3C48FF"/>
</g>
</svg>
